<mxfile host="Electron" agent="Mozilla/5.0 (Windows NT 10.0; Win64; x64) AppleWebKit/537.36 (KHTML, like Gecko) draw.io/24.7.17 Chrome/128.0.6613.36 Electron/32.0.1 Safari/537.36" version="24.7.17">
  <diagram id="C5RBs43oDa-KdzZeNtuy" name="Page-1">
    <mxGraphModel dx="1793" dy="1105" grid="1" gridSize="10" guides="1" tooltips="1" connect="1" arrows="1" fold="1" page="1" pageScale="1" pageWidth="1169" pageHeight="827" math="0" shadow="0">
      <root>
        <mxCell id="WIyWlLk6GJQsqaUBKTNV-0" />
        <mxCell id="WIyWlLk6GJQsqaUBKTNV-1" parent="WIyWlLk6GJQsqaUBKTNV-0" />
        <mxCell id="sTHpytvBDu_OMbgpiEBM-104" value="" style="rounded=1;whiteSpace=wrap;html=1;fillColor=none;dashed=1;arcSize=7;" vertex="1" parent="WIyWlLk6GJQsqaUBKTNV-1">
          <mxGeometry y="70" width="910" height="710" as="geometry" />
        </mxCell>
        <mxCell id="WIyWlLk6GJQsqaUBKTNV-4" value="No" style="rounded=0;html=1;jettySize=auto;orthogonalLoop=1;fontSize=11;endArrow=block;endFill=0;endSize=9;strokeWidth=1;shadow=0;labelBackgroundColor=none;edgeStyle=orthogonalEdgeStyle;" parent="WIyWlLk6GJQsqaUBKTNV-1" source="WIyWlLk6GJQsqaUBKTNV-6" target="WIyWlLk6GJQsqaUBKTNV-10" edge="1">
          <mxGeometry y="20" relative="1" as="geometry">
            <mxPoint as="offset" />
          </mxGeometry>
        </mxCell>
        <mxCell id="WIyWlLk6GJQsqaUBKTNV-5" value="Yes" style="edgeStyle=orthogonalEdgeStyle;rounded=0;html=1;jettySize=auto;orthogonalLoop=1;fontSize=11;endArrow=block;endFill=0;endSize=8;strokeWidth=1;shadow=0;labelBackgroundColor=none;" parent="WIyWlLk6GJQsqaUBKTNV-1" source="WIyWlLk6GJQsqaUBKTNV-6" target="WIyWlLk6GJQsqaUBKTNV-7" edge="1">
          <mxGeometry y="10" relative="1" as="geometry">
            <mxPoint as="offset" />
          </mxGeometry>
        </mxCell>
        <mxCell id="WIyWlLk6GJQsqaUBKTNV-6" value="&lt;div style=&quot;font-size: 12px;&quot;&gt;&lt;br style=&quot;font-size: 12px;&quot;&gt;&lt;/div&gt;&lt;div style=&quot;font-size: 12px;&quot;&gt;Flight exists in l2?&lt;/div&gt;" style="rhombus;whiteSpace=wrap;html=1;shadow=0;fontFamily=Helvetica;fontSize=12;align=center;strokeWidth=1;spacing=6;spacingTop=-4;verticalAlign=middle;" parent="WIyWlLk6GJQsqaUBKTNV-1" vertex="1">
          <mxGeometry x="78.5" y="201" width="100" height="80" as="geometry" />
        </mxCell>
        <mxCell id="WIyWlLk6GJQsqaUBKTNV-7" value="&lt;div&gt;Insert flight into&lt;br&gt;&lt;/div&gt;&lt;b&gt;l1._flight_schedules_stagging&lt;/b&gt;" style="rounded=1;whiteSpace=wrap;html=1;fontSize=12;glass=0;strokeWidth=1;shadow=0;" parent="WIyWlLk6GJQsqaUBKTNV-1" vertex="1">
          <mxGeometry x="228.5" y="221" width="190" height="40" as="geometry" />
        </mxCell>
        <mxCell id="WIyWlLk6GJQsqaUBKTNV-9" value="No" style="edgeStyle=orthogonalEdgeStyle;rounded=0;html=1;jettySize=auto;orthogonalLoop=1;fontSize=11;endArrow=block;endFill=0;endSize=8;strokeWidth=1;shadow=0;labelBackgroundColor=none;" parent="WIyWlLk6GJQsqaUBKTNV-1" source="WIyWlLk6GJQsqaUBKTNV-10" target="WIyWlLk6GJQsqaUBKTNV-12" edge="1">
          <mxGeometry y="10" relative="1" as="geometry">
            <mxPoint as="offset" />
          </mxGeometry>
        </mxCell>
        <mxCell id="WIyWlLk6GJQsqaUBKTNV-10" value="Date index exists?" style="rhombus;whiteSpace=wrap;html=1;shadow=0;fontFamily=Helvetica;fontSize=12;align=center;strokeWidth=1;spacing=6;spacingTop=-4;" parent="WIyWlLk6GJQsqaUBKTNV-1" vertex="1">
          <mxGeometry x="78.5" y="321" width="100" height="80" as="geometry" />
        </mxCell>
        <mxCell id="sTHpytvBDu_OMbgpiEBM-14" value="" style="rounded=0;orthogonalLoop=1;jettySize=auto;html=1;endSize=10;endArrow=block;endFill=0;entryX=1;entryY=0.5;entryDx=0;entryDy=0;entryPerimeter=0;edgeStyle=orthogonalEdgeStyle;exitX=0.5;exitY=1;exitDx=0;exitDy=0;" edge="1" parent="WIyWlLk6GJQsqaUBKTNV-1" source="WIyWlLk6GJQsqaUBKTNV-12" target="sTHpytvBDu_OMbgpiEBM-15">
          <mxGeometry relative="1" as="geometry">
            <mxPoint x="135.5" y="421" as="targetPoint" />
          </mxGeometry>
        </mxCell>
        <mxCell id="WIyWlLk6GJQsqaUBKTNV-12" value="Insert new date index&lt;div&gt;&lt;b&gt;l2.flight_scheduled_dates&lt;/b&gt;&lt;/div&gt;" style="rounded=1;whiteSpace=wrap;html=1;fontSize=12;glass=0;strokeWidth=1;shadow=0;" parent="WIyWlLk6GJQsqaUBKTNV-1" vertex="1">
          <mxGeometry x="228.5" y="341" width="177" height="40" as="geometry" />
        </mxCell>
        <mxCell id="sTHpytvBDu_OMbgpiEBM-2" value="+1&lt;div&gt;&lt;span style=&quot;background-color: initial;&quot;&gt;scheduled flight&lt;/span&gt;&lt;/div&gt;" style="shape=parallelogram;html=1;strokeWidth=1;perimeter=parallelogramPerimeter;whiteSpace=wrap;rounded=1;arcSize=12;size=0.23;align=center;" vertex="1" parent="WIyWlLk6GJQsqaUBKTNV-1">
          <mxGeometry x="57.5" y="20" width="140" height="40" as="geometry" />
        </mxCell>
        <mxCell id="sTHpytvBDu_OMbgpiEBM-3" value="&lt;div&gt;Insert flight into&lt;/div&gt;&lt;b&gt;l1.flight_schedules&lt;/b&gt;" style="rounded=1;whiteSpace=wrap;html=1;fontSize=12;glass=0;strokeWidth=1;shadow=0;" vertex="1" parent="WIyWlLk6GJQsqaUBKTNV-1">
          <mxGeometry x="55.5" y="90" width="145" height="40" as="geometry" />
        </mxCell>
        <mxCell id="sTHpytvBDu_OMbgpiEBM-7" value="" style="rounded=0;html=1;jettySize=auto;orthogonalLoop=1;fontSize=11;endArrow=block;endFill=0;endSize=8;strokeWidth=1;shadow=0;labelBackgroundColor=none;entryX=0.5;entryY=0;entryDx=0;entryDy=0;exitX=0.5;exitY=1;exitDx=0;exitDy=0;" edge="1" parent="WIyWlLk6GJQsqaUBKTNV-1" source="sTHpytvBDu_OMbgpiEBM-2" target="sTHpytvBDu_OMbgpiEBM-3">
          <mxGeometry relative="1" as="geometry">
            <mxPoint x="135.5" y="70" as="sourcePoint" />
            <mxPoint x="135.5" y="100" as="targetPoint" />
          </mxGeometry>
        </mxCell>
        <mxCell id="sTHpytvBDu_OMbgpiEBM-9" value="" style="endArrow=block;html=1;rounded=0;exitX=0.5;exitY=1;exitDx=0;exitDy=0;entryX=0.5;entryY=0;entryDx=0;entryDy=0;endFill=0;shape=link;" edge="1" parent="WIyWlLk6GJQsqaUBKTNV-1" source="sTHpytvBDu_OMbgpiEBM-3" target="WIyWlLk6GJQsqaUBKTNV-6">
          <mxGeometry relative="1" as="geometry">
            <mxPoint x="235.5" y="260" as="sourcePoint" />
            <mxPoint x="335.5" y="260" as="targetPoint" />
            <Array as="points">
              <mxPoint x="128.5" y="160" />
            </Array>
          </mxGeometry>
        </mxCell>
        <mxCell id="sTHpytvBDu_OMbgpiEBM-10" value="Trigger&amp;nbsp;&lt;div&gt;load flight to l2&lt;/div&gt;" style="edgeLabel;resizable=0;html=1;;align=center;verticalAlign=middle;" connectable="0" vertex="1" parent="sTHpytvBDu_OMbgpiEBM-9">
          <mxGeometry relative="1" as="geometry">
            <mxPoint y="-4" as="offset" />
          </mxGeometry>
        </mxCell>
        <mxCell id="sTHpytvBDu_OMbgpiEBM-13" value="Insert new flight into&lt;div&gt;&lt;b&gt;l2.flight_scheduled&lt;/b&gt;&lt;/div&gt;" style="rounded=1;whiteSpace=wrap;html=1;fontSize=12;glass=0;strokeWidth=1;shadow=0;" vertex="1" parent="WIyWlLk6GJQsqaUBKTNV-1">
          <mxGeometry x="40" y="517" width="177" height="40" as="geometry" />
        </mxCell>
        <mxCell id="sTHpytvBDu_OMbgpiEBM-15" value="" style="verticalLabelPosition=bottom;verticalAlign=top;html=1;shape=mxgraph.flowchart.summing_function;" vertex="1" parent="WIyWlLk6GJQsqaUBKTNV-1">
          <mxGeometry x="112" y="444" width="32.5" height="32" as="geometry" />
        </mxCell>
        <mxCell id="sTHpytvBDu_OMbgpiEBM-17" value="Yes" style="rounded=0;html=1;jettySize=auto;orthogonalLoop=1;fontSize=11;endArrow=block;endFill=0;endSize=10;strokeWidth=1;shadow=0;labelBackgroundColor=none;entryX=0.5;entryY=0;entryDx=0;entryDy=0;entryPerimeter=0;exitX=0.5;exitY=1;exitDx=0;exitDy=0;" edge="1" parent="WIyWlLk6GJQsqaUBKTNV-1" source="WIyWlLk6GJQsqaUBKTNV-10" target="sTHpytvBDu_OMbgpiEBM-15">
          <mxGeometry x="-0.0744" y="17" relative="1" as="geometry">
            <mxPoint as="offset" />
            <mxPoint x="165.5" y="381" as="sourcePoint" />
            <mxPoint x="165.5" y="427" as="targetPoint" />
          </mxGeometry>
        </mxCell>
        <mxCell id="sTHpytvBDu_OMbgpiEBM-19" value="" style="rounded=0;orthogonalLoop=1;jettySize=auto;html=1;endSize=10;endArrow=block;endFill=0;entryX=0.5;entryY=0;entryDx=0;entryDy=0;exitX=0.5;exitY=1;exitDx=0;exitDy=0;exitPerimeter=0;" edge="1" parent="WIyWlLk6GJQsqaUBKTNV-1" source="sTHpytvBDu_OMbgpiEBM-15" target="sTHpytvBDu_OMbgpiEBM-13">
          <mxGeometry relative="1" as="geometry">
            <mxPoint x="327.5" y="391" as="sourcePoint" />
            <mxPoint x="154.5" y="470" as="targetPoint" />
          </mxGeometry>
        </mxCell>
        <mxCell id="sTHpytvBDu_OMbgpiEBM-20" value="" style="endArrow=block;html=1;rounded=0;exitX=0.5;exitY=1;exitDx=0;exitDy=0;endFill=0;shape=link;entryX=0.5;entryY=0;entryDx=0;entryDy=0;" edge="1" parent="WIyWlLk6GJQsqaUBKTNV-1" source="sTHpytvBDu_OMbgpiEBM-13" target="sTHpytvBDu_OMbgpiEBM-28">
          <mxGeometry relative="1" as="geometry">
            <mxPoint x="265.5" y="546" as="sourcePoint" />
            <mxPoint x="128.5" y="641" as="targetPoint" />
          </mxGeometry>
        </mxCell>
        <mxCell id="sTHpytvBDu_OMbgpiEBM-21" value="Trigger&lt;div&gt;load routes to l3&lt;/div&gt;" style="edgeLabel;resizable=0;html=1;;align=center;verticalAlign=middle;" connectable="0" vertex="1" parent="sTHpytvBDu_OMbgpiEBM-20">
          <mxGeometry relative="1" as="geometry">
            <mxPoint y="-4" as="offset" />
          </mxGeometry>
        </mxCell>
        <mxCell id="sTHpytvBDu_OMbgpiEBM-22" value="Insert new route into&lt;div&gt;&lt;b&gt;l3.scheduled_routes&lt;/b&gt;&lt;/div&gt;" style="rounded=1;whiteSpace=wrap;html=1;fontSize=12;glass=0;strokeWidth=1;shadow=0;" vertex="1" parent="WIyWlLk6GJQsqaUBKTNV-1">
          <mxGeometry x="40.5" y="730" width="177" height="40" as="geometry" />
        </mxCell>
        <mxCell id="sTHpytvBDu_OMbgpiEBM-28" value="Flight route exists?" style="rhombus;whiteSpace=wrap;html=1;shadow=0;fontFamily=Helvetica;fontSize=12;align=center;strokeWidth=1;spacing=6;spacingTop=-4;" vertex="1" parent="WIyWlLk6GJQsqaUBKTNV-1">
          <mxGeometry x="79.5" y="612" width="100" height="80" as="geometry" />
        </mxCell>
        <mxCell id="sTHpytvBDu_OMbgpiEBM-29" value="No" style="rounded=0;html=1;jettySize=auto;orthogonalLoop=1;fontSize=11;endArrow=block;endFill=0;endSize=10;strokeWidth=1;shadow=0;labelBackgroundColor=none;entryX=0.5;entryY=0;entryDx=0;entryDy=0;exitX=0.5;exitY=1;exitDx=0;exitDy=0;" edge="1" parent="WIyWlLk6GJQsqaUBKTNV-1" source="sTHpytvBDu_OMbgpiEBM-28" target="sTHpytvBDu_OMbgpiEBM-22">
          <mxGeometry x="-0.0744" y="17" relative="1" as="geometry">
            <mxPoint as="offset" />
            <mxPoint x="304" y="630" as="sourcePoint" />
            <mxPoint x="267" y="693" as="targetPoint" />
          </mxGeometry>
        </mxCell>
        <mxCell id="sTHpytvBDu_OMbgpiEBM-32" value="No" style="rounded=0;html=1;jettySize=auto;orthogonalLoop=1;fontSize=11;endArrow=block;endFill=0;endSize=9;strokeWidth=1;shadow=0;labelBackgroundColor=none;entryX=0.5;entryY=0;entryDx=0;entryDy=0;exitX=0.5;exitY=1;exitDx=0;exitDy=0;" edge="1" parent="WIyWlLk6GJQsqaUBKTNV-1" source="sTHpytvBDu_OMbgpiEBM-34" target="sTHpytvBDu_OMbgpiEBM-53">
          <mxGeometry x="-0.307" y="11" relative="1" as="geometry">
            <mxPoint as="offset" />
            <mxPoint x="708.5000000000002" y="451.5899999999999" as="targetPoint" />
          </mxGeometry>
        </mxCell>
        <mxCell id="sTHpytvBDu_OMbgpiEBM-34" value="&lt;div style=&quot;font-size: 12px;&quot;&gt;&lt;br style=&quot;font-size: 12px;&quot;&gt;&lt;/div&gt;&lt;div style=&quot;font-size: 12px;&quot;&gt;Flight exists in l2?&lt;/div&gt;" style="rhombus;whiteSpace=wrap;html=1;shadow=0;fontFamily=Helvetica;fontSize=12;align=center;strokeWidth=1;spacing=6;spacingTop=-4;verticalAlign=middle;" vertex="1" parent="WIyWlLk6GJQsqaUBKTNV-1">
          <mxGeometry x="658.5" y="331.59" width="100" height="80" as="geometry" />
        </mxCell>
        <mxCell id="sTHpytvBDu_OMbgpiEBM-40" value="+1&lt;div&gt;&lt;span style=&quot;background-color: initial;&quot;&gt;past flight&lt;/span&gt;&lt;/div&gt;" style="shape=parallelogram;html=1;strokeWidth=1;perimeter=parallelogramPerimeter;whiteSpace=wrap;rounded=1;arcSize=12;size=0.23;align=center;" vertex="1" parent="WIyWlLk6GJQsqaUBKTNV-1">
          <mxGeometry x="637" y="20" width="140" height="40" as="geometry" />
        </mxCell>
        <mxCell id="sTHpytvBDu_OMbgpiEBM-41" value="&lt;div&gt;Insert flight into&lt;/div&gt;&lt;b&gt;l1.operations_customer_flight_info&lt;/b&gt;" style="rounded=1;whiteSpace=wrap;html=1;fontSize=12;glass=0;strokeWidth=1;shadow=0;" vertex="1" parent="WIyWlLk6GJQsqaUBKTNV-1">
          <mxGeometry x="595" y="90" width="225.5" height="40" as="geometry" />
        </mxCell>
        <mxCell id="sTHpytvBDu_OMbgpiEBM-42" value="" style="rounded=0;html=1;jettySize=auto;orthogonalLoop=1;fontSize=11;endArrow=block;endFill=0;endSize=8;strokeWidth=1;shadow=0;labelBackgroundColor=none;entryX=0.5;entryY=0;entryDx=0;entryDy=0;exitX=0.5;exitY=1;exitDx=0;exitDy=0;" edge="1" parent="WIyWlLk6GJQsqaUBKTNV-1" source="sTHpytvBDu_OMbgpiEBM-40" target="sTHpytvBDu_OMbgpiEBM-41">
          <mxGeometry relative="1" as="geometry">
            <mxPoint x="715" y="70" as="sourcePoint" />
            <mxPoint x="715" y="100" as="targetPoint" />
          </mxGeometry>
        </mxCell>
        <mxCell id="sTHpytvBDu_OMbgpiEBM-43" value="" style="endArrow=block;html=1;rounded=0;exitX=0.5;exitY=1;exitDx=0;exitDy=0;entryX=0.5;entryY=0;entryDx=0;entryDy=0;endFill=0;shape=link;" edge="1" parent="WIyWlLk6GJQsqaUBKTNV-1" source="sTHpytvBDu_OMbgpiEBM-41" target="sTHpytvBDu_OMbgpiEBM-49">
          <mxGeometry relative="1" as="geometry">
            <mxPoint x="815" y="260" as="sourcePoint" />
            <mxPoint x="915" y="260" as="targetPoint" />
            <Array as="points">
              <mxPoint x="708" y="160" />
            </Array>
          </mxGeometry>
        </mxCell>
        <mxCell id="sTHpytvBDu_OMbgpiEBM-44" value="Trigger&amp;nbsp;&lt;div&gt;load flight to stagging table&lt;/div&gt;" style="edgeLabel;resizable=0;html=1;;align=center;verticalAlign=middle;" connectable="0" vertex="1" parent="sTHpytvBDu_OMbgpiEBM-43">
          <mxGeometry relative="1" as="geometry">
            <mxPoint y="-4" as="offset" />
          </mxGeometry>
        </mxCell>
        <mxCell id="sTHpytvBDu_OMbgpiEBM-49" value="&lt;div&gt;Insert flight into&lt;br&gt;&lt;/div&gt;&lt;b&gt;l1._&lt;/b&gt;&lt;b&gt;operations_customer_flight_info_stagging&lt;/b&gt;&lt;span style=&quot;color: rgba(0, 0, 0, 0); font-family: monospace; font-size: 0px; text-align: start; text-wrap: nowrap;&quot;&gt;%3CmxGraphModel%3E%3Croot%3E%3CmxCell%20id%3D%220%22%2F%3E%3CmxCell%20id%3D%221%22%20parent%3D%220%22%2F%3E%3CmxCell%20id%3D%222%22%20value%3D%22%26lt%3Bdiv%26gt%3BInsert%20flight%20into%26lt%3Bbr%26gt%3B%26lt%3B%2Fdiv%26gt%3B%26lt%3Bb%26gt%3Bl1._flight_schedules_stagging%26lt%3B%2Fb%26gt%3B%22%20style%3D%22rounded%3D1%3BwhiteSpace%3Dwrap%3Bhtml%3D1%3BfontSize%3D12%3Bglass%3D0%3BstrokeWidth%3D1%3Bshadow%3D0%3B%22%20vertex%3D%221%22%20parent%3D%221%22%3E%3CmxGeometry%20x%3D%22637.5%22%20y%3D%22221%22%20width%3D%22190%22%20height%3D%2240%22%20as%3D%22geometry%22%2F%3E%3C%2FmxCell%3E%3C%2Froot%3E%3C%2FmxGraphModel%3Eo&lt;/span&gt;" style="rounded=1;whiteSpace=wrap;html=1;fontSize=12;glass=0;strokeWidth=1;shadow=0;" vertex="1" parent="WIyWlLk6GJQsqaUBKTNV-1">
          <mxGeometry x="550" y="221" width="315.5" height="40" as="geometry" />
        </mxCell>
        <mxCell id="sTHpytvBDu_OMbgpiEBM-50" value="" style="endArrow=block;html=1;rounded=0;exitX=0.5;exitY=1;exitDx=0;exitDy=0;entryX=0.5;entryY=0;entryDx=0;entryDy=0;endFill=0;shape=arrow;" edge="1" parent="WIyWlLk6GJQsqaUBKTNV-1" source="sTHpytvBDu_OMbgpiEBM-49" target="sTHpytvBDu_OMbgpiEBM-34">
          <mxGeometry relative="1" as="geometry">
            <mxPoint x="700" y="281" as="sourcePoint" />
            <mxPoint x="700" y="372" as="targetPoint" />
            <Array as="points">
              <mxPoint x="700" y="311" />
            </Array>
          </mxGeometry>
        </mxCell>
        <mxCell id="sTHpytvBDu_OMbgpiEBM-51" value="ETL&lt;div&gt;(Airflow)&lt;/div&gt;" style="edgeLabel;resizable=0;html=1;;align=center;verticalAlign=middle;" connectable="0" vertex="1" parent="sTHpytvBDu_OMbgpiEBM-50">
          <mxGeometry relative="1" as="geometry">
            <mxPoint x="39" y="-12" as="offset" />
          </mxGeometry>
        </mxCell>
        <mxCell id="sTHpytvBDu_OMbgpiEBM-53" value="&lt;div&gt;Insert flight into&lt;/div&gt;&lt;b&gt;l2.operations_customer_flight_info&lt;/b&gt;" style="rounded=1;whiteSpace=wrap;html=1;fontSize=12;glass=0;strokeWidth=1;shadow=0;" vertex="1" parent="WIyWlLk6GJQsqaUBKTNV-1">
          <mxGeometry x="596" y="462" width="225.5" height="40" as="geometry" />
        </mxCell>
        <mxCell id="sTHpytvBDu_OMbgpiEBM-54" value="" style="endArrow=block;html=1;rounded=0;exitX=0.5;exitY=1;exitDx=0;exitDy=0;endFill=0;shape=arrow;entryX=0.5;entryY=0;entryDx=0;entryDy=0;" edge="1" parent="WIyWlLk6GJQsqaUBKTNV-1" source="sTHpytvBDu_OMbgpiEBM-22" target="sTHpytvBDu_OMbgpiEBM-56">
          <mxGeometry relative="1" as="geometry">
            <mxPoint x="120" y="800" as="sourcePoint" />
            <mxPoint x="130" y="870" as="targetPoint" />
            <Array as="points">
              <mxPoint x="112" y="850" />
            </Array>
          </mxGeometry>
        </mxCell>
        <mxCell id="sTHpytvBDu_OMbgpiEBM-55" value="Dump table to the Postgres Server&lt;div&gt;with the GraphDB (Airflow)&lt;/div&gt;" style="edgeLabel;resizable=0;html=1;;align=center;verticalAlign=middle;" connectable="0" vertex="1" parent="sTHpytvBDu_OMbgpiEBM-54">
          <mxGeometry relative="1" as="geometry">
            <mxPoint x="111" y="-19" as="offset" />
          </mxGeometry>
        </mxCell>
        <mxCell id="sTHpytvBDu_OMbgpiEBM-56" value="&lt;div&gt;Dump of the table to&amp;nbsp;&lt;/div&gt;&lt;div&gt;&lt;b&gt;l3.scheduled_routes&lt;/b&gt;&lt;/div&gt;" style="rounded=1;whiteSpace=wrap;html=1;fontSize=12;glass=0;strokeWidth=1;shadow=0;" vertex="1" parent="WIyWlLk6GJQsqaUBKTNV-1">
          <mxGeometry x="41" y="870" width="177" height="40" as="geometry" />
        </mxCell>
        <mxCell id="sTHpytvBDu_OMbgpiEBM-57" value="&lt;div&gt;&lt;span style=&quot;background-color: initial;&quot;&gt;Insert route into&lt;/span&gt;&lt;/div&gt;&lt;div&gt;&lt;b style=&quot;background-color: initial;&quot;&gt;public.scheduled_routes&lt;/b&gt;&lt;br&gt;&lt;/div&gt;" style="rounded=1;whiteSpace=wrap;html=1;fontSize=12;glass=0;strokeWidth=1;shadow=0;" vertex="1" parent="WIyWlLk6GJQsqaUBKTNV-1">
          <mxGeometry x="41" y="1100" width="177" height="40" as="geometry" />
        </mxCell>
        <mxCell id="sTHpytvBDu_OMbgpiEBM-58" value="Flight route exists?" style="rhombus;whiteSpace=wrap;html=1;shadow=0;fontFamily=Helvetica;fontSize=12;align=center;strokeWidth=1;spacing=6;spacingTop=-4;" vertex="1" parent="WIyWlLk6GJQsqaUBKTNV-1">
          <mxGeometry x="80" y="960" width="100" height="80" as="geometry" />
        </mxCell>
        <mxCell id="sTHpytvBDu_OMbgpiEBM-60" value="" style="rounded=0;html=1;jettySize=auto;orthogonalLoop=1;fontSize=11;endArrow=block;endFill=0;endSize=10;strokeWidth=1;shadow=0;labelBackgroundColor=none;entryX=0.5;entryY=0;entryDx=0;entryDy=0;exitX=0.5;exitY=1;exitDx=0;exitDy=0;" edge="1" parent="WIyWlLk6GJQsqaUBKTNV-1" source="sTHpytvBDu_OMbgpiEBM-58" target="sTHpytvBDu_OMbgpiEBM-57">
          <mxGeometry x="-0.0744" y="17" relative="1" as="geometry">
            <mxPoint as="offset" />
            <mxPoint x="139" y="1043" as="sourcePoint" />
            <mxPoint x="139" y="1078" as="targetPoint" />
          </mxGeometry>
        </mxCell>
        <mxCell id="sTHpytvBDu_OMbgpiEBM-63" value="No" style="edgeLabel;html=1;align=center;verticalAlign=middle;resizable=0;points=[];" vertex="1" connectable="0" parent="sTHpytvBDu_OMbgpiEBM-60">
          <mxGeometry x="-0.059" y="-2" relative="1" as="geometry">
            <mxPoint x="24" as="offset" />
          </mxGeometry>
        </mxCell>
        <mxCell id="sTHpytvBDu_OMbgpiEBM-64" value="" style="endArrow=block;html=1;rounded=0;exitX=0.5;exitY=1;exitDx=0;exitDy=0;entryX=0.5;entryY=0;entryDx=0;entryDy=0;endFill=0;shape=link;exitPerimeter=0;" edge="1" parent="WIyWlLk6GJQsqaUBKTNV-1" source="sTHpytvBDu_OMbgpiEBM-77" target="sTHpytvBDu_OMbgpiEBM-84">
          <mxGeometry relative="1" as="geometry">
            <mxPoint x="127" y="1283" as="sourcePoint" />
            <mxPoint x="131" y="1333" as="targetPoint" />
          </mxGeometry>
        </mxCell>
        <mxCell id="sTHpytvBDu_OMbgpiEBM-65" value="Trigger&amp;nbsp;&lt;div&gt;Load to graph DB&lt;/div&gt;" style="edgeLabel;resizable=0;html=1;;align=center;verticalAlign=middle;" connectable="0" vertex="1" parent="sTHpytvBDu_OMbgpiEBM-64">
          <mxGeometry relative="1" as="geometry">
            <mxPoint y="-4" as="offset" />
          </mxGeometry>
        </mxCell>
        <mxCell id="sTHpytvBDu_OMbgpiEBM-67" value="Route&amp;nbsp;&lt;span style=&quot;background-color: initial; font-size: 10px;&quot;&gt;duration updated?&lt;/span&gt;" style="rhombus;whiteSpace=wrap;html=1;shadow=0;fontFamily=Helvetica;fontSize=10;align=center;strokeWidth=1;spacing=6;spacingTop=-4;" vertex="1" parent="WIyWlLk6GJQsqaUBKTNV-1">
          <mxGeometry x="287" y="960" width="100" height="80" as="geometry" />
        </mxCell>
        <mxCell id="sTHpytvBDu_OMbgpiEBM-68" value="" style="rounded=0;html=1;jettySize=auto;orthogonalLoop=1;fontSize=11;endArrow=block;endFill=0;endSize=10;strokeWidth=1;shadow=0;labelBackgroundColor=none;exitX=0.5;exitY=1;exitDx=0;exitDy=0;entryX=0.5;entryY=0;entryDx=0;entryDy=0;" edge="1" parent="WIyWlLk6GJQsqaUBKTNV-1" source="sTHpytvBDu_OMbgpiEBM-56" target="sTHpytvBDu_OMbgpiEBM-58">
          <mxGeometry x="-0.0744" y="17" relative="1" as="geometry">
            <mxPoint as="offset" />
            <mxPoint x="160" y="1023" as="sourcePoint" />
            <mxPoint x="160" y="1063" as="targetPoint" />
          </mxGeometry>
        </mxCell>
        <mxCell id="sTHpytvBDu_OMbgpiEBM-72" value="" style="rounded=0;html=1;jettySize=auto;orthogonalLoop=1;fontSize=11;endArrow=block;endFill=0;endSize=10;strokeWidth=1;shadow=0;labelBackgroundColor=none;entryX=0;entryY=0.5;entryDx=0;entryDy=0;exitX=1;exitY=0.5;exitDx=0;exitDy=0;" edge="1" parent="WIyWlLk6GJQsqaUBKTNV-1" source="sTHpytvBDu_OMbgpiEBM-58" target="sTHpytvBDu_OMbgpiEBM-67">
          <mxGeometry x="-0.0744" y="17" relative="1" as="geometry">
            <mxPoint as="offset" />
            <mxPoint x="140" y="1050" as="sourcePoint" />
            <mxPoint x="140" y="1110" as="targetPoint" />
          </mxGeometry>
        </mxCell>
        <mxCell id="sTHpytvBDu_OMbgpiEBM-73" value="Yes" style="edgeLabel;html=1;align=center;verticalAlign=middle;resizable=0;points=[];" vertex="1" connectable="0" parent="sTHpytvBDu_OMbgpiEBM-72">
          <mxGeometry x="-0.059" y="-2" relative="1" as="geometry">
            <mxPoint x="-8" y="-22" as="offset" />
          </mxGeometry>
        </mxCell>
        <mxCell id="sTHpytvBDu_OMbgpiEBM-74" value="&lt;div&gt;&lt;span style=&quot;background-color: initial;&quot;&gt;Update route into&lt;/span&gt;&lt;/div&gt;&lt;div&gt;&lt;b style=&quot;background-color: initial;&quot;&gt;public.scheduled_routes&lt;/b&gt;&lt;br&gt;&lt;/div&gt;" style="rounded=1;whiteSpace=wrap;html=1;fontSize=12;glass=0;strokeWidth=1;shadow=0;" vertex="1" parent="WIyWlLk6GJQsqaUBKTNV-1">
          <mxGeometry x="248.5" y="1100" width="177" height="40" as="geometry" />
        </mxCell>
        <mxCell id="sTHpytvBDu_OMbgpiEBM-75" value="" style="rounded=0;html=1;jettySize=auto;orthogonalLoop=1;fontSize=11;endArrow=block;endFill=0;endSize=10;strokeWidth=1;shadow=0;labelBackgroundColor=none;entryX=0.5;entryY=0;entryDx=0;entryDy=0;exitX=0.5;exitY=1;exitDx=0;exitDy=0;" edge="1" parent="WIyWlLk6GJQsqaUBKTNV-1" source="sTHpytvBDu_OMbgpiEBM-67" target="sTHpytvBDu_OMbgpiEBM-74">
          <mxGeometry x="-0.0744" y="17" relative="1" as="geometry">
            <mxPoint as="offset" />
            <mxPoint x="190" y="1010" as="sourcePoint" />
            <mxPoint x="290" y="1010" as="targetPoint" />
          </mxGeometry>
        </mxCell>
        <mxCell id="sTHpytvBDu_OMbgpiEBM-76" value="Yes" style="edgeLabel;html=1;align=center;verticalAlign=middle;resizable=0;points=[];" vertex="1" connectable="0" parent="sTHpytvBDu_OMbgpiEBM-75">
          <mxGeometry x="-0.059" y="-2" relative="1" as="geometry">
            <mxPoint x="24" y="-9" as="offset" />
          </mxGeometry>
        </mxCell>
        <mxCell id="sTHpytvBDu_OMbgpiEBM-77" value="" style="verticalLabelPosition=bottom;verticalAlign=top;html=1;shape=mxgraph.flowchart.summing_function;" vertex="1" parent="WIyWlLk6GJQsqaUBKTNV-1">
          <mxGeometry x="106" y="1180" width="47" height="48" as="geometry" />
        </mxCell>
        <mxCell id="sTHpytvBDu_OMbgpiEBM-78" value="" style="rounded=0;html=1;jettySize=auto;orthogonalLoop=1;fontSize=11;endArrow=block;endFill=0;endSize=10;strokeWidth=1;shadow=0;labelBackgroundColor=none;exitX=0.5;exitY=1;exitDx=0;exitDy=0;entryX=1;entryY=0.5;entryDx=0;entryDy=0;entryPerimeter=0;edgeStyle=orthogonalEdgeStyle;" edge="1" parent="WIyWlLk6GJQsqaUBKTNV-1" source="sTHpytvBDu_OMbgpiEBM-74" target="sTHpytvBDu_OMbgpiEBM-77">
          <mxGeometry x="-0.0744" y="17" relative="1" as="geometry">
            <mxPoint as="offset" />
            <mxPoint x="347" y="1050" as="sourcePoint" />
            <mxPoint x="220" y="1210" as="targetPoint" />
          </mxGeometry>
        </mxCell>
        <mxCell id="sTHpytvBDu_OMbgpiEBM-80" value="" style="rounded=0;html=1;jettySize=auto;orthogonalLoop=1;fontSize=11;endArrow=block;endFill=0;endSize=10;strokeWidth=1;shadow=0;labelBackgroundColor=none;entryX=0.5;entryY=0;entryDx=0;entryDy=0;exitX=0.5;exitY=1;exitDx=0;exitDy=0;entryPerimeter=0;" edge="1" parent="WIyWlLk6GJQsqaUBKTNV-1" source="sTHpytvBDu_OMbgpiEBM-57" target="sTHpytvBDu_OMbgpiEBM-77">
          <mxGeometry x="-0.0744" y="17" relative="1" as="geometry">
            <mxPoint as="offset" />
            <mxPoint x="140" y="1050" as="sourcePoint" />
            <mxPoint x="140" y="1110" as="targetPoint" />
          </mxGeometry>
        </mxCell>
        <mxCell id="sTHpytvBDu_OMbgpiEBM-82" value="No" style="rounded=0;html=1;jettySize=auto;orthogonalLoop=1;fontSize=11;endArrow=block;endFill=0;endSize=9;strokeWidth=1;shadow=0;labelBackgroundColor=none;exitX=0.5;exitY=1;exitDx=0;exitDy=0;entryX=0.5;entryY=0;entryDx=0;entryDy=0;" edge="1" parent="WIyWlLk6GJQsqaUBKTNV-1" source="sTHpytvBDu_OMbgpiEBM-84" target="sTHpytvBDu_OMbgpiEBM-87">
          <mxGeometry y="20" relative="1" as="geometry">
            <mxPoint as="offset" />
            <mxPoint x="130" y="1430" as="targetPoint" />
            <mxPoint x="144.40109890109898" y="1380.1208791208792" as="sourcePoint" />
          </mxGeometry>
        </mxCell>
        <mxCell id="sTHpytvBDu_OMbgpiEBM-83" value="Yes" style="rounded=0;html=1;jettySize=auto;orthogonalLoop=1;fontSize=11;endArrow=block;endFill=0;endSize=8;strokeWidth=1;shadow=0;labelBackgroundColor=none;entryX=0;entryY=0.5;entryDx=0;entryDy=0;entryPerimeter=0;" edge="1" parent="WIyWlLk6GJQsqaUBKTNV-1" source="sTHpytvBDu_OMbgpiEBM-84" target="sTHpytvBDu_OMbgpiEBM-90">
          <mxGeometry y="10" relative="1" as="geometry">
            <mxPoint as="offset" />
            <mxPoint x="229" y="1460" as="targetPoint" />
          </mxGeometry>
        </mxCell>
        <mxCell id="sTHpytvBDu_OMbgpiEBM-84" value="Nodes for airports exist?" style="rhombus;whiteSpace=wrap;html=1;shadow=0;fontFamily=Helvetica;fontSize=12;align=center;strokeWidth=1;spacing=6;spacingTop=-4;verticalAlign=middle;" vertex="1" parent="WIyWlLk6GJQsqaUBKTNV-1">
          <mxGeometry x="81.5" y="1301" width="100" height="80" as="geometry" />
        </mxCell>
        <mxCell id="sTHpytvBDu_OMbgpiEBM-86" value="&lt;div&gt;&lt;span style=&quot;background-color: initial;&quot;&gt;&lt;br&gt;&lt;/span&gt;&lt;/div&gt;&lt;div&gt;&lt;span style=&quot;background-color: initial;&quot;&gt;Edge for route exists?&lt;/span&gt;&lt;br&gt;&lt;/div&gt;" style="rhombus;whiteSpace=wrap;html=1;shadow=0;fontFamily=Helvetica;fontSize=12;align=center;strokeWidth=1;spacing=6;spacingTop=-4;verticalAlign=middle;" vertex="1" parent="WIyWlLk6GJQsqaUBKTNV-1">
          <mxGeometry x="310" y="1301" width="100" height="80" as="geometry" />
        </mxCell>
        <mxCell id="sTHpytvBDu_OMbgpiEBM-87" value="&lt;div&gt;Create Nodes&lt;/div&gt;" style="rounded=1;whiteSpace=wrap;html=1;fontSize=12;glass=0;strokeWidth=1;shadow=0;" vertex="1" parent="WIyWlLk6GJQsqaUBKTNV-1">
          <mxGeometry x="78" y="1420" width="108" height="40" as="geometry" />
        </mxCell>
        <mxCell id="sTHpytvBDu_OMbgpiEBM-88" value="" style="rounded=0;html=1;jettySize=auto;orthogonalLoop=1;fontSize=11;endArrow=block;endFill=0;endSize=8;strokeWidth=1;shadow=0;labelBackgroundColor=none;exitX=1;exitY=0.5;exitDx=0;exitDy=0;entryX=0.5;entryY=1;entryDx=0;entryDy=0;edgeStyle=orthogonalEdgeStyle;entryPerimeter=0;" edge="1" parent="WIyWlLk6GJQsqaUBKTNV-1" source="sTHpytvBDu_OMbgpiEBM-87" target="sTHpytvBDu_OMbgpiEBM-90">
          <mxGeometry y="10" relative="1" as="geometry">
            <mxPoint as="offset" />
            <mxPoint x="243" y="1351" as="targetPoint" />
            <mxPoint x="192" y="1351" as="sourcePoint" />
          </mxGeometry>
        </mxCell>
        <mxCell id="sTHpytvBDu_OMbgpiEBM-89" value="" style="rounded=0;html=1;jettySize=auto;orthogonalLoop=1;fontSize=11;endArrow=block;endFill=0;endSize=8;strokeWidth=1;shadow=0;labelBackgroundColor=none;exitX=1;exitY=0.5;exitDx=0;exitDy=0;entryX=0;entryY=0.5;entryDx=0;entryDy=0;" edge="1" parent="WIyWlLk6GJQsqaUBKTNV-1" source="sTHpytvBDu_OMbgpiEBM-86" target="sTHpytvBDu_OMbgpiEBM-100">
          <mxGeometry y="10" relative="1" as="geometry">
            <mxPoint as="offset" />
            <mxPoint x="472.0000000000002" y="1341" as="targetPoint" />
            <mxPoint x="410" y="1360" as="sourcePoint" />
          </mxGeometry>
        </mxCell>
        <mxCell id="sTHpytvBDu_OMbgpiEBM-93" value="Yes" style="edgeLabel;html=1;align=center;verticalAlign=middle;resizable=0;points=[];" vertex="1" connectable="0" parent="sTHpytvBDu_OMbgpiEBM-89">
          <mxGeometry x="-0.0272" y="-1" relative="1" as="geometry">
            <mxPoint y="-12" as="offset" />
          </mxGeometry>
        </mxCell>
        <mxCell id="sTHpytvBDu_OMbgpiEBM-90" value="" style="verticalLabelPosition=bottom;verticalAlign=top;html=1;shape=mxgraph.flowchart.summing_function;" vertex="1" parent="WIyWlLk6GJQsqaUBKTNV-1">
          <mxGeometry x="228.5" y="1317" width="47" height="48" as="geometry" />
        </mxCell>
        <mxCell id="sTHpytvBDu_OMbgpiEBM-92" value="" style="rounded=0;html=1;jettySize=auto;orthogonalLoop=1;fontSize=11;endArrow=block;endFill=0;endSize=8;strokeWidth=1;shadow=0;labelBackgroundColor=none;exitX=1;exitY=0.5;exitDx=0;exitDy=0;exitPerimeter=0;entryX=0;entryY=0.5;entryDx=0;entryDy=0;" edge="1" parent="WIyWlLk6GJQsqaUBKTNV-1" source="sTHpytvBDu_OMbgpiEBM-90" target="sTHpytvBDu_OMbgpiEBM-86">
          <mxGeometry y="10" relative="1" as="geometry">
            <mxPoint as="offset" />
            <mxPoint x="517.5" y="1350" as="targetPoint" />
            <mxPoint x="420" y="1351" as="sourcePoint" />
          </mxGeometry>
        </mxCell>
        <mxCell id="sTHpytvBDu_OMbgpiEBM-94" value="" style="rounded=0;html=1;jettySize=auto;orthogonalLoop=1;fontSize=11;endArrow=block;endFill=0;endSize=8;strokeWidth=1;shadow=0;labelBackgroundColor=none;exitX=0.5;exitY=1;exitDx=0;exitDy=0;" edge="1" parent="WIyWlLk6GJQsqaUBKTNV-1" source="sTHpytvBDu_OMbgpiEBM-86" target="sTHpytvBDu_OMbgpiEBM-96">
          <mxGeometry y="10" relative="1" as="geometry">
            <mxPoint as="offset" />
            <mxPoint x="517.5" y="1350" as="targetPoint" />
            <mxPoint x="420" y="1351" as="sourcePoint" />
          </mxGeometry>
        </mxCell>
        <mxCell id="sTHpytvBDu_OMbgpiEBM-95" value="No" style="edgeLabel;html=1;align=center;verticalAlign=middle;resizable=0;points=[];" vertex="1" connectable="0" parent="sTHpytvBDu_OMbgpiEBM-94">
          <mxGeometry x="-0.0272" y="-1" relative="1" as="geometry">
            <mxPoint x="21" as="offset" />
          </mxGeometry>
        </mxCell>
        <mxCell id="sTHpytvBDu_OMbgpiEBM-102" value="" style="rounded=1;whiteSpace=wrap;html=1;fillColor=none;dashed=1;arcSize=7;" vertex="1" parent="WIyWlLk6GJQsqaUBKTNV-1">
          <mxGeometry x="10" y="830" width="620" height="660" as="geometry" />
        </mxCell>
        <mxCell id="sTHpytvBDu_OMbgpiEBM-103" value="" style="rounded=1;whiteSpace=wrap;html=1;fillColor=none;dashed=1;strokeColor=#000000;fontColor=#000000;" vertex="1" parent="WIyWlLk6GJQsqaUBKTNV-1">
          <mxGeometry x="50" y="1290" width="540" height="180" as="geometry" />
        </mxCell>
        <mxCell id="sTHpytvBDu_OMbgpiEBM-96" value="&lt;div&gt;Create Edge&lt;/div&gt;" style="rounded=1;whiteSpace=wrap;html=1;fontSize=12;glass=0;strokeWidth=1;shadow=0;" vertex="1" parent="WIyWlLk6GJQsqaUBKTNV-1">
          <mxGeometry x="307" y="1420" width="108" height="40" as="geometry" />
        </mxCell>
        <mxCell id="sTHpytvBDu_OMbgpiEBM-100" value="&lt;div&gt;Update Edge&lt;/div&gt;" style="rounded=1;whiteSpace=wrap;html=1;fontSize=12;glass=0;strokeWidth=1;shadow=0;" vertex="1" parent="WIyWlLk6GJQsqaUBKTNV-1">
          <mxGeometry x="473" y="1321" width="108" height="40" as="geometry" />
        </mxCell>
        <mxCell id="sTHpytvBDu_OMbgpiEBM-105" value="dst_graph_db&lt;div&gt;(Postgres + AGE)&lt;/div&gt;" style="text;strokeColor=none;fillColor=none;html=1;fontSize=18;fontStyle=1;verticalAlign=middle;align=center;" vertex="1" parent="WIyWlLk6GJQsqaUBKTNV-1">
          <mxGeometry x="405.5" y="840" width="210" height="40" as="geometry" />
        </mxCell>
        <mxCell id="sTHpytvBDu_OMbgpiEBM-106" value="&lt;font style=&quot;font-size: 14px;&quot;&gt;GraphDB&lt;/font&gt;" style="text;strokeColor=none;fillColor=none;html=1;fontSize=24;fontStyle=1;verticalAlign=middle;align=center;fontColor=#000000;" vertex="1" parent="WIyWlLk6GJQsqaUBKTNV-1">
          <mxGeometry x="460.5" y="1281" width="100" height="40" as="geometry" />
        </mxCell>
        <mxCell id="sTHpytvBDu_OMbgpiEBM-107" value="dst_airlines_db&lt;div&gt;(Postgres)&lt;/div&gt;" style="text;strokeColor=none;fillColor=none;html=1;fontSize=18;fontStyle=1;verticalAlign=middle;align=center;" vertex="1" parent="WIyWlLk6GJQsqaUBKTNV-1">
          <mxGeometry x="340" y="80" width="210" height="40" as="geometry" />
        </mxCell>
      </root>
    </mxGraphModel>
  </diagram>
</mxfile>
